<?xml version="1.0" encoding="UTF-8" standalone="no"?><!DOCTYPE svg PUBLIC "-//W3C//DTD SVG 1.1//EN" "http://www.w3.org/Graphics/SVG/1.1/DTD/svg11.dtd"><svg width="100%" height="100%" viewBox="0 0 1001 639" version="1.1" xmlns="http://www.w3.org/2000/svg" xmlns:xlink="http://www.w3.org/1999/xlink" xml:space="preserve" xmlns:serif="http://www.serif.com/" style="fill-rule:evenodd;clip-rule:evenodd;"><g id="HTS-Clare-Haverhill_12pp"><g id="g5368"><g id="g6468"><g id="g4850"><path id="path4858" d="M172.133,637.535c105.554,-62.824 165.205,-152.178 169.898,-324.422l0.296,-127.5l-341.53,0l-0.297,127.5c0,143.304 62.608,265.122 171.633,324.422" style="fill:#fff;fill-rule:nonzero;"/><path id="path4866" d="M172.133,637.535c105.554,-62.824 165.205,-152.178 169.898,-324.422l0.296,-127.5l-341.53,0l-0.297,127.5c0,143.304 62.608,265.122 171.633,324.422" style="fill:#333;fill-rule:nonzero;"/><path id="path4870" d="M333.777,311.928l1.177,-117.773l-325.024,1.178l-1.196,116.595c7.282,0.422 10.744,1.312 17.54,-0.854c6.464,-2.059 10.743,-4.801 14.879,-4.954c16.012,-0.683 23.033,12.173 43.693,5.538c9.197,-2.976 16.829,-7.714 25.999,-5.349c9.665,2.472 15.778,7.147 26.117,7.219c13.027,0.036 25.308,-8.703 35.197,-8.289c10.402,0.413 23.258,7.282 31.484,7.938c13.072,1.079 17.351,-7.282 35.754,-7.3c9.925,-0.018 17.396,4.648 24.552,6.158c3.129,0.684 6.842,1.034 10.294,0.207c9.26,-2.211 16.569,-7.65 25.919,-6.805c11.741,1.051 22.161,6.311 33.615,6.491" style="fill:#fff;fill-rule:nonzero;"/><path id="path4874" d="M16.713,347.204c6.437,3.712 11.966,6.625 14.915,13.692c1.915,4.549 3.92,8.468 4.792,12.793c0.305,1.474 0.782,3.191 1.609,4.657c1.528,2.751 2.913,5.466 5.313,7.605c3.345,3.012 8.541,2.329 9.098,5.547c0.414,2.5 -3.758,4.046 -6.302,6.303c-1.555,1.375 -3.173,2.094 -4.989,2.679c3.335,1.007 6.535,0.782 9.655,1.133c0.989,0.107 2.041,0.062 3.003,-0.243c0.845,5.25 4.351,10.644 10.006,11.768c-2.041,-5.502 -2.338,-11.04 0.728,-16.47c-4.117,-0.953 -6.581,-0.171 -10.339,-5.97c9.009,3.587 16.282,4.63 24.957,7.642c4.154,1.438 7.75,3.731 11.517,5.799c7.282,4.045 12.667,9.583 19.365,14.816c0.8,0.656 0.593,2.418 1.942,1.393c0.917,-0.701 1.096,-1.052 0.566,-1.798c-4.378,-6.203 -7.983,-10.069 -12.811,-15.409c5.853,0.818 14.241,2.184 19.428,-1.493c-5.044,-3.838 -16.183,-6.194 -22.089,-12.64c-14.196,1.178 -34.424,-5.448 -42.875,-14.213c-1.159,-1.214 -2.778,-3.282 -3.587,-5.08c-1.177,-2.589 -1.663,-5.61 -0.746,-8.316c0.764,-2.337 3.992,-3.56 5.646,-3.425c0.845,0.081 2.715,1.232 1.618,1.852c-1.366,0.773 -3.335,0.548 -4.216,1.852c-1.969,2.967 -1.61,6.994 1.142,9.691c2.454,2.437 5.061,4.801 8.181,6.743c4.324,2.733 8.585,4.432 13.422,5.979c7.669,2.436 22.134,3.299 33.201,1.968c-7.956,-1.879 -16.236,-3.083 -23.554,-6.949c-3.749,-1.987 -5.727,-3.308 -7.948,-6.006c2.437,3.066 7.507,4.406 11.184,4.145c-1.106,-1.277 -4.126,-2.958 -5.304,-4.145c1.492,1.897 4.171,2.85 7.012,2.536c5.79,-0.666 8.011,-2.131 8.604,-2.814c-5.304,-0.27 -10.824,1.141 -15.544,-0.863c-6.608,-2.787 -9.638,-9.71 -15.877,-13.198c-4.064,-2.266 -6.401,-4.342 -10.546,-6.527c-1.33,-0.719 -3.766,-0.872 -5.663,-3.893c-1.628,-2.598 -2.41,-4.306 -4.118,-6.877c-1.151,-1.735 -3.227,-3.057 -5.133,-3.363c-3.453,-0.53 -7.112,-1.402 -10.501,0.324c-3.344,1.744 -4.792,5.115 -7.696,7.588l-7.066,1.187Z" style="fill:#fff;fill-rule:nonzero;"/><path id="path4878" d="M35.72,347.485c1.897,0 3.425,-0.845 3.425,-1.816c0,-0.989 -1.528,-1.789 -3.425,-1.789c-1.897,0 -3.434,0.8 -3.434,1.789c0,0.971 1.537,1.816 3.434,1.816" style="fill:#333;fill-rule:nonzero;"/><path id="path4882" d="M62.371,438.52c6.455,3.713 11.975,6.662 14.933,13.701c1.906,4.558 3.91,8.469 4.792,12.802c0.287,1.439 0.782,3.183 1.591,4.648c1.537,2.751 2.931,5.466 5.322,7.624c3.344,2.994 8.541,2.329 9.08,5.538c0.441,2.49 -3.749,4.046 -6.293,6.302c-1.537,1.376 -3.165,2.095 -4.981,2.688c3.327,0.98 6.545,0.791 9.656,1.124c0.98,0.081 2.032,0.054 3.012,-0.243c0.818,5.242 4.342,10.663 10.006,11.769c-2.041,-5.502 -2.356,-11.04 0.728,-16.462c-4.145,-0.952 -6.599,-0.188 -10.339,-5.996c8.99,3.596 16.282,4.639 24.948,7.651c4.154,1.438 7.75,3.731 11.508,5.816c7.3,4.028 12.676,9.548 19.365,14.816c0.809,0.639 0.611,2.41 1.942,1.376c0.935,-0.683 1.096,-1.043 0.575,-1.798c-4.378,-6.195 -7.974,-10.051 -12.82,-15.41c5.852,0.837 14.24,2.194 19.428,-1.465c-5.035,-3.866 -16.192,-6.203 -22.071,-12.667c-14.214,1.196 -34.424,-5.457 -42.875,-14.196c-1.169,-1.213 -2.796,-3.281 -3.596,-5.079c-1.169,-2.58 -1.663,-5.619 -0.746,-8.343c0.773,-2.311 3.992,-3.551 5.646,-3.399c0.845,0.054 2.715,1.214 1.627,1.816c-1.384,0.81 -3.344,0.594 -4.216,1.879c-1.996,2.958 -1.628,6.986 1.132,9.683c2.464,2.427 5.062,4.801 8.164,6.761c4.342,2.724 8.594,4.414 13.431,5.96c7.687,2.454 22.134,3.309 33.21,1.96c-7.965,-1.861 -16.236,-3.057 -23.564,-6.94c-3.739,-1.969 -5.708,-3.309 -7.938,-6.006c2.445,3.066 7.498,4.414 11.184,4.136c-1.106,-1.259 -4.118,-2.931 -5.304,-4.136c1.474,1.897 4.171,2.868 7.021,2.535c5.781,-0.665 7.992,-2.112 8.595,-2.823c-5.304,-0.251 -10.815,1.169 -15.544,-0.854c-6.599,-2.787 -9.647,-9.7 -15.877,-13.188c-4.064,-2.293 -6.41,-4.343 -10.546,-6.527c-1.33,-0.711 -3.794,-0.854 -5.673,-3.902c-1.618,-2.589 -2.4,-4.288 -4.117,-6.878c-1.142,-1.735 -3.228,-3.056 -5.116,-3.335c-3.452,-0.566 -7.12,-1.429 -10.509,0.324c-3.344,1.717 -4.792,5.088 -7.696,7.56l-7.075,1.178Z" style="fill:#fff;fill-rule:nonzero;"/><path id="path4886" d="M81.383,438.783c1.906,0 3.434,-0.791 3.434,-1.771c0,-1.007 -1.528,-1.807 -3.434,-1.807c-1.897,0 -3.444,0.8 -3.444,1.807c0,0.98 1.547,1.771 3.444,1.771" style="fill:#333;fill-rule:nonzero;"/><path id="path4890" d="M115.149,523.769c6.446,3.722 11.966,6.644 14.924,13.71c1.906,4.55 3.911,8.469 4.783,12.767c0.287,1.465 0.791,3.209 1.6,4.666c1.537,2.76 2.922,5.484 5.322,7.614c3.354,3.012 8.541,2.32 9.098,5.556c0.423,2.5 -3.749,4.046 -6.311,6.302c-1.537,1.367 -3.164,2.077 -4.98,2.688c3.335,0.989 6.535,0.756 9.655,1.124c0.989,0.09 2.05,0.063 3.003,-0.242c0.836,5.241 4.351,10.662 10.006,11.759c-2.032,-5.502 -2.346,-11.04 0.737,-16.461c-4.126,-0.962 -6.608,-0.171 -10.339,-5.988c9,3.596 16.282,4.648 24.957,7.633c4.145,1.465 7.741,3.749 11.508,5.817c7.291,4.054 12.667,9.565 19.365,14.815c0.8,0.675 0.602,2.41 1.942,1.403c0.926,-0.701 1.088,-1.07 0.566,-1.807c-4.369,-6.203 -7.974,-10.06 -12.82,-15.4c5.862,0.827 14.232,2.166 19.446,-1.484c-5.053,-3.857 -16.192,-6.194 -22.089,-12.667c-14.214,1.187 -34.424,-5.448 -42.875,-14.205c-1.168,-1.222 -2.796,-3.272 -3.596,-5.061c-1.168,-2.607 -1.663,-5.637 -0.746,-8.343c0.773,-2.311 3.992,-3.551 5.655,-3.407c0.836,0.063 2.706,1.195 1.618,1.816c-1.366,0.791 -3.344,0.584 -4.216,1.879c-1.987,2.939 -1.618,6.985 1.133,9.682c2.463,2.445 5.07,4.81 8.172,6.743c4.333,2.742 8.594,4.45 13.431,5.978c7.678,2.455 22.134,3.309 33.21,1.978c-7.965,-1.888 -16.236,-3.084 -23.563,-6.958c-3.749,-1.987 -5.718,-3.291 -7.948,-5.997c2.437,3.066 7.507,4.405 11.184,4.1c-1.106,-1.232 -4.126,-2.922 -5.304,-4.1c1.492,1.87 4.18,2.868 7.012,2.535c5.79,-0.665 8.011,-2.121 8.613,-2.822c-5.304,-0.252 -10.833,1.159 -15.553,-0.846c-6.599,-2.796 -9.638,-9.718 -15.877,-13.224c-4.064,-2.275 -6.401,-4.307 -10.555,-6.509c-1.321,-0.71 -3.766,-0.872 -5.654,-3.893c-1.628,-2.598 -2.41,-4.288 -4.118,-6.895c-1.151,-1.736 -3.218,-3.039 -5.124,-3.336c-3.453,-0.548 -7.112,-1.411 -10.51,0.333c-3.353,1.708 -4.792,5.097 -7.687,7.57l-7.075,1.177Z" style="fill:#fff;fill-rule:nonzero;"/><path id="path4894" d="M134.148,524.033c1.906,0 3.443,-0.809 3.443,-1.789c0,-0.98 -1.537,-1.789 -3.443,-1.789c-1.888,0 -3.425,0.809 -3.425,1.789c0,0.98 1.537,1.789 3.425,1.789" style="fill:#333;fill-rule:nonzero;"/><path id="path4898" d="M175.021,439.546c6.437,3.704 11.957,6.617 14.924,13.701c1.906,4.558 3.92,8.469 4.774,12.775c0.306,1.466 0.8,3.201 1.618,4.657c1.538,2.76 2.904,5.475 5.305,7.606c3.353,3.03 8.549,2.319 9.098,5.556c0.431,2.499 -3.749,4.055 -6.294,6.329c-1.555,1.367 -3.182,2.068 -4.998,2.67c3.353,0.98 6.554,0.782 9.673,1.133c0.971,0.099 2.041,0.054 2.994,-0.27c0.845,5.26 4.342,10.663 10.006,11.795c-2.04,-5.511 -2.346,-11.049 0.729,-16.461c-4.127,-0.971 -6.59,-0.198 -10.339,-5.996c9.008,3.587 16.29,4.639 24.957,7.633c4.153,1.429 7.749,3.748 11.516,5.834c7.291,4.019 12.658,9.548 19.356,14.798c0.809,0.629 0.603,2.401 1.96,1.403c0.908,-0.72 1.079,-1.061 0.548,-1.807c-4.369,-6.213 -7.965,-10.052 -12.793,-15.419c5.844,0.836 14.232,2.194 19.41,-1.465c-5.025,-3.848 -16.173,-6.212 -22.08,-12.667c-14.204,1.186 -34.423,-5.457 -42.874,-14.232c-1.169,-1.187 -2.778,-3.254 -3.596,-5.034c-1.169,-2.608 -1.655,-5.646 -0.747,-8.352c0.774,-2.338 4.01,-3.543 5.664,-3.408c0.836,0.063 2.697,1.205 1.619,1.843c-1.367,0.764 -3.345,0.549 -4.217,1.861c-1.978,2.976 -1.627,6.986 1.124,9.683c2.472,2.427 5.07,4.792 8.181,6.76c4.324,2.706 8.586,4.442 13.422,5.952c7.678,2.463 22.143,3.299 33.201,1.969c-7.947,-1.879 -16.218,-3.066 -23.545,-6.923c-3.758,-1.996 -5.718,-3.308 -7.947,-6.014c2.436,3.048 7.497,4.405 11.183,4.108c-1.105,-1.231 -4.126,-2.93 -5.304,-4.108c1.484,1.879 4.172,2.85 7.022,2.517c5.78,-0.638 7.992,-2.113 8.594,-2.805c-5.304,-0.279 -10.824,1.16 -15.544,-0.845c-6.599,-2.805 -9.637,-9.718 -15.877,-13.216c-4.063,-2.274 -6.392,-4.333 -10.545,-6.518c-1.331,-0.71 -3.767,-0.872 -5.664,-3.901c-1.636,-2.616 -2.4,-4.289 -4.127,-6.887c-1.15,-1.744 -3.218,-3.039 -5.115,-3.344c-3.461,-0.54 -7.12,-1.403 -10.51,0.341c-3.344,1.709 -4.782,5.08 -7.695,7.579l-7.067,1.169Z" style="fill:#fff;fill-rule:nonzero;"/><path id="path4902" d="M194.024,439.809c1.897,0 3.443,-0.809 3.443,-1.789c0,-0.98 -1.546,-1.807 -3.443,-1.807c-1.888,0 -3.434,0.827 -3.434,1.807c0,0.98 1.546,1.789 3.434,1.789" style="fill:#333;fill-rule:nonzero;"/><path id="path4906" d="M117.182,347.204c6.437,3.712 11.948,6.625 14.924,13.692c1.896,4.549 3.901,8.468 4.782,12.793c0.306,1.474 0.783,3.191 1.61,4.657c1.528,2.751 2.903,5.466 5.304,7.605c3.353,3.012 8.541,2.329 9.089,5.547c0.432,2.5 -3.749,4.046 -6.302,6.303c-1.537,1.375 -3.165,2.094 -4.981,2.679c3.336,1.007 6.554,0.782 9.665,1.133c0.971,0.107 2.041,0.062 2.994,-0.243c0.845,5.25 4.342,10.644 10.015,11.768c-2.05,-5.502 -2.338,-11.04 0.728,-16.47c-4.136,-0.953 -6.599,-0.171 -10.321,-5.97c8.981,3.587 16.263,4.63 24.93,7.642c4.163,1.438 7.759,3.731 11.517,5.799c7.291,4.045 12.658,9.583 19.356,14.816c0.818,0.656 0.602,2.418 1.959,1.393c0.917,-0.701 1.088,-1.052 0.558,-1.798c-4.378,-6.203 -7.966,-10.069 -12.802,-15.409c5.852,0.818 14.24,2.184 19.428,-1.493c-5.035,-3.838 -16.192,-6.194 -22.08,-12.64c-14.214,1.178 -34.442,-5.448 -42.866,-14.213c-1.178,-1.214 -2.796,-3.282 -3.614,-5.08c-1.178,-2.589 -1.654,-5.61 -0.737,-8.316c0.764,-2.337 3.991,-3.56 5.655,-3.425c0.827,0.081 2.697,1.232 1.618,1.852c-1.367,0.773 -3.344,0.548 -4.217,1.852c-1.986,2.967 -1.627,6.994 1.115,9.691c2.491,2.437 5.08,4.801 8.19,6.743c4.316,2.733 8.586,4.432 13.414,5.979c7.686,2.436 22.143,3.299 33.21,1.968c-7.948,-1.879 -16.228,-3.083 -23.564,-6.949c-3.731,-1.987 -5.708,-3.308 -7.929,-6.006c2.436,3.066 7.489,4.406 11.175,4.145c-1.097,-1.277 -4.127,-2.958 -5.295,-4.145c1.474,1.897 4.162,2.85 7.03,2.536c5.772,-0.666 7.974,-2.131 8.577,-2.814c-5.305,-0.27 -10.807,1.141 -15.544,-0.863c-6.599,-2.787 -9.638,-9.71 -15.877,-13.198c-4.055,-2.266 -6.392,-4.342 -10.546,-6.527c-1.33,-0.719 -3.767,-0.872 -5.655,-3.893c-1.645,-2.598 -2.391,-4.306 -4.126,-6.877c-1.151,-1.735 -3.219,-3.057 -5.116,-3.363c-3.47,-0.53 -7.129,-1.402 -10.527,0.324c-3.336,1.744 -4.774,5.115 -7.696,7.588l-7.048,1.187Z" style="fill:#fff;fill-rule:nonzero;"/><path id="path4910" d="M136.189,347.485c1.888,0 3.425,-0.845 3.425,-1.816c0,-0.989 -1.537,-1.789 -3.425,-1.789c-1.906,0 -3.443,0.8 -3.443,1.789c0,0.971 1.537,1.816 3.443,1.816" style="fill:#333;fill-rule:nonzero;"/><path id="path4914" d="M214.599,346.185c6.437,3.695 11.957,6.644 14.933,13.71c1.888,4.549 3.902,8.451 4.774,12.766c0.296,1.466 0.782,3.21 1.609,4.657c1.528,2.76 2.904,5.493 5.313,7.633c3.354,3.003 8.523,2.31 9.08,5.538c0.45,2.499 -3.74,4.045 -6.293,6.32c-1.537,1.358 -3.164,2.068 -4.989,2.67c3.344,0.971 6.554,0.782 9.664,1.106c0.98,0.126 2.041,0.072 2.994,-0.243c0.845,5.268 4.36,10.681 10.024,11.786c-2.05,-5.502 -2.346,-11.049 0.719,-16.452c-4.135,-0.971 -6.599,-0.18 -10.321,-5.996c8.982,3.587 16.264,4.63 24.939,7.632c4.154,1.43 7.759,3.749 11.508,5.826c7.3,4.01 12.667,9.548 19.356,14.807c0.827,0.638 0.62,2.4 1.96,1.394c0.917,-0.693 1.088,-1.061 0.557,-1.789c-4.378,-6.222 -7.965,-10.061 -12.802,-15.428c5.853,0.818 14.232,2.185 19.428,-1.465c-5.034,-3.848 -16.182,-6.221 -22.08,-12.658c-14.205,1.177 -34.424,-5.466 -42.866,-14.196c-1.177,-1.241 -2.795,-3.281 -3.614,-5.08c-1.168,-2.607 -1.654,-5.636 -0.737,-8.351c0.764,-2.311 3.992,-3.534 5.664,-3.399c0.827,0.063 2.697,1.214 1.618,1.825c-1.375,0.782 -3.353,0.576 -4.225,1.87c-1.987,2.94 -1.636,6.986 1.115,9.674c2.49,2.427 5.079,4.827 8.19,6.751c4.333,2.742 8.585,4.451 13.422,5.988c7.696,2.445 22.134,3.299 33.201,1.969c-7.938,-1.888 -16.209,-3.075 -23.563,-6.95c-3.731,-1.987 -5.709,-3.299 -7.93,-6.005c2.437,3.074 7.498,4.405 11.184,4.117c-1.106,-1.24 -4.135,-2.912 -5.295,-4.117c1.465,1.87 4.162,2.868 7.021,2.526c5.781,-0.665 7.984,-2.113 8.577,-2.814c-5.295,-0.261 -10.797,1.16 -15.544,-0.845c-6.59,-2.796 -9.629,-9.718 -15.877,-13.216c-4.054,-2.274 -6.392,-4.333 -10.545,-6.518c-1.331,-0.71 -3.767,-0.881 -5.655,-3.883c-1.645,-2.634 -2.401,-4.307 -4.127,-6.914c-1.142,-1.726 -3.218,-3.039 -5.124,-3.344c-3.452,-0.522 -7.121,-1.394 -10.501,0.341c-3.335,1.727 -4.783,5.107 -7.695,7.579l-7.067,1.178Z" style="fill:#fff;fill-rule:nonzero;"/><path id="path4918" d="M233.607,346.448c1.888,0 3.426,-0.809 3.426,-1.798c0,-0.98 -1.538,-1.789 -3.426,-1.789c-1.906,0 -3.434,0.809 -3.434,1.789c0,0.989 1.528,1.798 3.434,1.798" style="fill:#333;fill-rule:nonzero;"/><path id="path4922" d="M170.434,175.379c-36.177,0.126 -100.988,10.788 -100.988,10.788c0,0 -7.543,-3.173 -9.718,-8.693c-0.971,-2.463 -1.151,-5.394 -1.088,-7.804c0.09,-2.885 1.268,-4.998 2.265,-6.616c2.131,-3.498 6.177,-6.923 11.472,-8.685c5.304,-1.771 28.265,-7.66 41.229,-9.422c12.955,-1.771 38.865,-5.897 56.522,-5.897c17.666,0 44.16,1.771 59.471,4.126c15.31,2.356 34.306,5.439 41.966,8.981c7.651,3.543 9.656,7.489 10.447,11.184c0.683,3.255 0.845,7.66 0.152,11.193c-0.71,3.578 -1.932,8.1 -5.457,11.031c-1.762,1.484 -73.863,-10.285 -106.273,-10.186" style="fill:#333;fill-rule:nonzero;"/><path id="path4926" d="M77.055,117.321c0,0 26.494,-7.075 38.262,-8.253c11.777,-1.169 30.639,-5.304 39.458,-5.304l28.859,0c6.473,0 27.663,2.949 38.263,5.304c10.608,2.355 40.635,8.253 40.635,8.253l-4.126,9.997l11.642,25.91c0,0 -35.781,-8.828 -51.082,-10.006c-15.32,-1.178 -36.519,-2.346 -50.058,-2.346c-13.548,0 -36.518,1.168 -51.226,4.117c-14.717,2.94 -48.593,10.6 -48.593,10.6l11.778,-25.892l-6.177,-11.796l2.365,-0.584Z" style="fill:#fff;fill-rule:nonzero;"/><path id="path4930" d="M77.055,117.321c0,0 26.494,-7.075 38.262,-8.253c11.777,-1.169 30.639,-5.304 39.458,-5.304l28.859,0c6.473,0 27.663,2.949 38.263,5.304c10.608,2.355 40.635,8.253 40.635,8.253l-4.126,9.997l11.642,25.91c0,0 -35.781,-8.828 -51.082,-10.006c-15.32,-1.178 -36.519,-2.346 -50.058,-2.346c-13.548,0 -36.518,1.168 -51.226,4.117c-14.717,2.94 -48.593,10.6 -48.593,10.6l11.778,-25.892l-6.177,-11.796l2.365,-0.584Z" style="fill:none;stroke:#333;stroke-width:4.71px;"/><path id="path4934" d="M271.649,149.704l38.082,-113.844c0,0 0.773,-3.137 -0.395,-5.493c-1.187,-2.364 -4.316,-3.533 -6.68,-3.533c-2.346,0 -3.929,0.387 -5.484,2.365c-1.564,1.942 -1.969,2.733 -2.76,5.097c-0.782,2.347 -1.169,3.929 -1.169,3.929c0,0 -3.542,-1.582 -5.484,-1.582c-2.373,0 -4.711,0.359 -6.967,1.959c-1.601,1.133 -3.74,4.307 -4.244,6.968c-0.485,2.598 -0.503,5.34 0.468,7.525c1.222,2.733 2.49,4.36 4.837,5.538c2.364,1.168 6.293,0.791 6.293,0.791l-29.839,68.685l12.568,23.168l0.774,-1.573Z" style="fill:#fff;fill-rule:nonzero;"/><path id="path4938" d="M271.649,149.704l38.082,-113.844c0,0 0.773,-3.137 -0.395,-5.493c-1.187,-2.364 -4.316,-3.533 -6.68,-3.533c-2.346,0 -3.929,0.387 -5.484,2.365c-1.564,1.942 -1.969,2.733 -2.76,5.097c-0.782,2.347 -1.169,3.929 -1.169,3.929c0,0 -3.542,-1.582 -5.484,-1.582c-2.373,0 -4.711,0.359 -6.967,1.959c-1.601,1.133 -3.74,4.307 -4.244,6.968c-0.485,2.598 -0.503,5.34 0.468,7.525c1.222,2.733 2.49,4.36 4.837,5.538c2.364,1.168 6.293,0.791 6.293,0.791l-29.839,68.685l12.568,23.168l0.774,-1.573Z" style="fill:none;stroke:#333;stroke-width:4.71px;"/><path id="path4942" d="M277.065,128.721c0,0 -1.825,-1.906 -3.092,-2.104c-1.124,-0.18 -2.68,0.476 -3.237,1.232c-0.575,0.737 -1.69,2.598 -1.528,3.425c0.126,0.674 0,1.618 0.242,2.508c0.207,0.746 1.133,2.158 2.113,2.401c0.98,0.242 3.102,0 3.102,0l2.4,-7.462Z" style="fill:#333;fill-rule:nonzero;"/><path id="path4946" d="M80.583,130.85c0,0 24.22,-6.033 34.154,-8.235c10.591,-2.356 30.612,-5.898 37.094,-5.898c6.473,0 27.681,-1.178 35.916,-0.575c8.244,0.575 23.555,2.355 32.967,3.524c9.431,1.186 18.853,2.949 24.733,4.702c5.897,1.78 12.963,3.551 12.963,3.551" style="fill:none;stroke:#333;stroke-width:4.71px;"/><path id="path4950" d="M154.573,118.497l14.537,16.479l16.479,-16.092l-10.599,-78.899c0,0 3.92,0 6.284,-0.395c2.365,-0.387 4.315,-1.178 5.889,-3.543c1.573,-2.355 2.346,-4.746 2.346,-7.497c0,-2.751 -0.773,-5.053 -1.951,-6.635c-1.186,-1.556 -3.146,-2.742 -4.72,-3.12c-1.564,-0.404 -5.493,0.243 -5.493,0.243c0,0 0.099,-9.224 0.144,-7.894c0.063,1.295 -0.26,-2.715 -1.951,-4.674c-1.034,-1.187 -2.004,-1.808 -3.191,-2.653c-1.196,-0.845 -2.904,-1.087 -5.259,-1.087c-2.347,0 -4.702,0.278 -6.123,1.618c-0.89,0.845 -2.256,2.22 -2.859,3.443c-0.629,1.304 -1.177,2.634 -1.177,3.929c0.009,1.285 0.404,7.453 0.404,7.453c0,0 -2.868,-0.63 -4.441,-0.63c-1.573,0 -3.201,0.198 -4.612,0.962c-1.115,0.603 -2.436,1.969 -3.668,3.758c-0.701,1.025 -1.789,3.758 -1.789,6.204c0,2.409 0.8,4.854 1.447,6.095c0.809,1.528 1.744,2.661 3.3,3.524c1.267,0.737 3.038,1.546 4.657,1.681c2.265,0.189 4.324,-0.242 5.493,-0.395c1.294,-0.171 2.598,-0.639 2.598,-0.639l-5.745,78.764Z" style="fill:#fff;fill-rule:nonzero;"/><path id="path4954" d="M154.573,118.497l14.537,16.479l16.479,-16.092l-10.599,-78.899c0,0 3.92,0 6.284,-0.395c2.365,-0.387 4.315,-1.178 5.889,-3.543c1.573,-2.355 2.346,-4.746 2.346,-7.497c0,-2.751 -0.773,-5.053 -1.951,-6.635c-1.186,-1.556 -3.146,-2.742 -4.72,-3.12c-1.564,-0.404 -5.493,0.243 -5.493,0.243c0,0 0.099,-9.224 0.144,-7.894c0.063,1.295 -0.26,-2.715 -1.951,-4.674c-1.034,-1.187 -2.004,-1.808 -3.191,-2.653c-1.196,-0.845 -2.904,-1.087 -5.259,-1.087c-2.347,0 -4.702,0.278 -6.123,1.618c-0.89,0.845 -2.256,2.22 -2.859,3.443c-0.629,1.304 -1.177,2.634 -1.177,3.929c0.009,1.285 0.404,7.453 0.404,7.453c0,0 -2.868,-0.63 -4.441,-0.63c-1.573,0 -3.201,0.198 -4.612,0.962c-1.115,0.603 -2.436,1.969 -3.668,3.758c-0.701,1.025 -1.789,3.758 -1.789,6.204c0,2.409 0.8,4.854 1.447,6.095c0.809,1.528 1.744,2.661 3.3,3.524c1.267,0.737 3.038,1.546 4.657,1.681c2.265,0.189 4.324,-0.242 5.493,-0.395c1.294,-0.171 2.598,-0.639 2.598,-0.639l-5.745,78.764Z" style="fill:none;stroke:#333;stroke-width:4.71px;"/><path id="path4958" d="M169.49,122.152c3.317,0 6.014,-2.706 6.014,-6.005c0,-3.326 -2.697,-6.015 -6.014,-6.015c-3.309,0 -5.988,2.689 -5.988,6.015c0,3.299 2.679,6.005 5.988,6.005" style="fill:#333;fill-rule:nonzero;"/><path id="path4962" d="M167.729,116.543c1.196,0 2.176,-0.971 2.176,-2.175c0,-1.196 -0.98,-2.176 -2.176,-2.176c-1.195,0 -2.175,0.98 -2.175,2.176c0,1.204 0.98,2.175 2.175,2.175" style="fill:#fff;fill-rule:nonzero;"/><path id="path4966" d="M167.729,116.543c1.196,0 2.176,-0.971 2.176,-2.175c0,-1.196 -0.98,-2.176 -2.176,-2.176c-1.195,0 -2.175,0.98 -2.175,2.176c0,1.204 0.98,2.175 2.175,2.175Z" style="fill:none;stroke:#333;stroke-width:2.36px;"/><path id="path4970" d="M108.99,101.197c-1.367,-0.342 -0.683,-0.342 -1.187,-0.98c-0.521,-0.656 -0.18,-1.151 -0.18,-2.131c0,-0.971 0,-1.95 -0.341,-2.76c-0.351,-0.809 -0.702,-0.485 -1.565,-0.656c-0.872,-0.153 -1.933,-0.288 -2.975,-0.44c-1.034,-0.162 -2.733,-0.639 -4.81,-2.104c-2.068,-1.466 -4.351,-3.039 -5.385,-4.342c-1.025,-1.295 -2.104,-5.664 -1.78,-7.282c0.323,-1.781 -1.816,-3.812 -1.816,-5.7c0,-1.78 -0.567,-2.329 0.548,-3.992c0.89,-1.34 1.043,-3.803 0.387,-4.405c-0.72,-0.674 -1.547,-1.106 -2.868,-0.854c-1.358,0.26 -2.383,1.124 -2.383,1.124c0,0 -0.35,-2.284 -0.701,-3.075c-0.333,-0.818 -1.295,-1.798 -2.221,-2.365c-0.998,-0.593 -2.265,-1.096 -3.533,-1.015c-1.195,0.071 -2.184,0.782 -3.047,1.438c-0.855,0.656 -1.34,1.429 -1.79,2.535c-0.458,1.097 -0.809,2.976 -0.638,4.441c0.162,1.466 1.034,2.599 1.034,2.599c0,0 -0.396,0.323 -1.753,0.422c-1.349,0.081 -2.032,-0.252 -3.147,0.081c-1.258,0.369 -1.968,1.618 -2.544,2.922c-0.611,1.384 -0.261,3.38 0.36,4.558c0.836,1.582 2.068,2.607 3.272,3.74c1.232,1.151 5.889,3.425 5.889,3.425l1.043,0.315c0,0 -3.641,0.656 -4.684,1.303c-1.025,0.648 -2.059,1.789 -2.419,2.769c-0.377,1.079 -0.557,1.718 0.153,3.749c0.558,1.538 1.933,2.437 3.309,2.931c1.384,0.486 2.418,0.333 3.803,0.486c1.384,0.152 3.623,0 3.623,0c0,0 -1.367,0.638 -1.888,1.627c-0.522,0.98 -0.863,2.274 -0.171,3.416c0.692,1.142 1.375,1.789 2.931,2.275c1.546,0.494 3.632,0.755 5.529,0.647c2.939,-0.153 7.444,-1.133 7.444,-1.133c0,0 -0.531,0.98 -0.531,2.275c0,1.303 0.18,1.789 1.394,2.598c1.195,0.827 1.375,0.656 3.281,0.827c1.906,0.153 3.803,-0.171 5.349,-0.494c1.565,-0.333 5.88,-1.142 7.606,-1.466c1.735,-0.324 5.7,-0.962 7.282,-1.294c0,0 5.862,-0.819 8.298,-1.313c2.409,-0.477 5.34,-0.647 7.075,-1.133c1.727,-0.485 2.949,-0.98 3.812,-2.445c0.863,-1.466 1.034,-3.084 0.863,-3.902c-0.17,-0.818 -1.222,-1.789 -1.222,-1.789c0,0 2.067,0.189 3.65,0.009c1.384,-0.171 2.922,-0.638 3.964,-1.618c1.025,-0.962 1.547,-1.583 2.059,-3.03c0.531,-1.483 0.441,-2.086 0.261,-3.227c-0.153,-1.142 -0.953,-1.897 -1.636,-2.554c-0.684,-0.656 -1.726,-0.809 -2.239,-0.98c-0.521,-0.161 2.185,-1.474 2.185,-1.474c0,0 2.301,-0.8 3.335,-1.933c1.043,-1.142 2.212,-3.155 2.688,-4.927c0.531,-1.977 0.8,-3.704 0.27,-4.989c-0.513,-1.304 -1.223,-1.969 -2.086,-2.131c-0.872,-0.171 -2.247,0.162 -2.931,0.486c-0.701,0.323 -1.726,0.971 -1.726,0.971c0,0 3.237,-3.3 4.495,-5.26c1.079,-1.69 1.268,-2.616 1.709,-4.567c0.35,-1.609 0.269,-3.308 -0.513,-4.657c-0.998,-1.726 -2.077,-2.598 -3.111,-2.94c-1.168,-0.35 -2.229,-0.197 -3.11,0.342c-0.737,0.441 -1.726,1.789 -1.726,1.789c0,0 0.863,-2.283 0,-3.911c-0.872,-1.627 -1.529,-2.301 -3.138,-2.993c-1.178,-0.504 -2.67,-0.675 -4.064,-0.504c-1.375,0.162 -2.346,0.746 -3.146,1.69c-0.71,0.845 -1.178,1.664 -1.349,2.796c-0.17,1.133 0.081,2.239 0.288,2.877c0.288,0.98 0.683,1.834 0.683,1.834c0,0 -2.067,-0.485 -3.452,-0.323c-1.088,0.125 -1.87,0.341 -2.742,1.537c-0.818,1.079 -0.261,3.632 0.701,4.324c1.879,1.331 0.684,1.726 1.448,2.661c0.989,1.214 1.627,1.699 2.229,2.769c0.549,0.998 0.773,1.664 0.881,3.327c0.072,1.052 -0.44,2.121 -0.44,2.121c0,0 -0.207,0.657 -0.665,2.653c-0.432,1.789 -1.106,2.175 -1.259,3.389c-0.18,1.312 -1.196,3.578 -2.23,4.882c-1.034,1.312 -1.897,3.11 -3.281,4.081c-1.385,0.971 -3.282,1.951 -4.495,2.598c0,0 -0.333,0.324 -0.333,1.457c0,1.141 0.144,1.798 0.333,3.263c0.171,1.448 0.521,0.98 0.35,1.951c-0.179,0.98 -0.35,0.98 -1.213,1.465c-0.872,0.495 -2.248,0.81 -2.248,0.81l-4.504,0.503l-2.598,0Z" style="fill:#333;fill-rule:nonzero;"/><path id="path4974" d="M124.034,64.393c0,0 3.416,1.816 4.612,3.218c1.214,1.421 1.618,2.419 2.221,4.028c0.602,1.609 0.602,5.826 0,8.244c-0.603,2.4 -1.079,3.38 -2.293,5.187c-1.196,1.807 -1.978,3.273 -4.585,4.873c-2.616,1.609 -4.935,3.291 -4.935,3.291l3.29,10.68l-14.151,2.409l-0.233,-10.635c0,0 -1.25,-0.234 -3.21,-0.719c-1.124,-0.27 -2.67,-0.953 -5.088,-1.96c-2.41,-0.998 -3.722,-2.239 -5.341,-3.641c-1.555,-1.367 -2.598,-2.994 -3.65,-5.278c-0.863,-1.888 -0.998,-3.011 -0.998,-5.834c0,-2.787 1.394,-5.61 1.394,-5.61l2.427,-2.823c0,0 4.504,4.54 16.614,1.951c10.771,-2.32 13.926,-7.381 13.926,-7.381" style="fill:#333;fill-rule:nonzero;"/><path id="path4978" d="M124.034,64.393c0,0 3.416,1.816 4.612,3.218c1.214,1.421 1.618,2.419 2.221,4.028c0.602,1.609 0.602,5.826 0,8.244c-0.603,2.4 -1.079,3.38 -2.293,5.187c-1.196,1.807 -1.978,3.273 -4.585,4.873c-2.616,1.609 -4.935,3.291 -4.935,3.291l3.29,10.68l-14.151,2.409l-0.233,-10.635c0,0 -1.25,-0.234 -3.21,-0.719c-1.124,-0.27 -2.67,-0.953 -5.088,-1.96c-2.41,-0.998 -3.722,-2.239 -5.341,-3.641c-1.555,-1.367 -2.598,-2.994 -3.65,-5.278c-0.863,-1.888 -0.998,-3.011 -0.998,-5.834c0,-2.787 1.394,-5.61 1.394,-5.61l2.427,-2.823c0,0 4.504,4.54 16.614,1.951c10.771,-2.32 13.926,-7.381 13.926,-7.381Z" style="fill:none;stroke:#fff;stroke-width:4.71px;"/><path id="path4982" d="M123.801,68.037c0,0 -2.922,-7.48 -3.335,-9.647c-0.558,-2.913 -0.665,-7.057 -1.663,-9.458c-0.998,-2.418 -2.823,-5.825 -4.415,-7.426c-1.609,-1.618 -3.614,-3.623 -5.636,-4.63c-1.996,-1.007 -5.008,-2.814 -5.008,-2.814c0,0 -2.023,-2.607 -3.623,-2.202c-1.618,0.395 -2.814,3.209 -2.814,3.209c0,0 -2.302,2.598 -4.019,5.421c-1.043,1.691 -1.762,4.226 -2.22,6.428c-0.315,1.574 -0.396,3.857 0,6.249c0.413,2.427 1.717,5.286 2.643,8.1c0.962,2.886 1.438,11.426 1.438,11.426c0,0 3.282,2.104 14.097,-0.062c10.797,-2.158 14.555,-4.594 14.555,-4.594" style="fill:#fff;fill-rule:nonzero;"/><path id="path4986" d="M123.801,68.037c0,0 -2.922,-7.48 -3.335,-9.647c-0.558,-2.913 -0.665,-7.057 -1.663,-9.458c-0.998,-2.418 -2.823,-5.825 -4.415,-7.426c-1.609,-1.618 -3.614,-3.623 -5.636,-4.63c-1.996,-1.007 -5.008,-2.814 -5.008,-2.814c0,0 -2.023,-2.607 -3.623,-2.202c-1.618,0.395 -2.814,3.209 -2.814,3.209c0,0 -2.302,2.598 -4.019,5.421c-1.043,1.691 -1.762,4.226 -2.22,6.428c-0.315,1.574 -0.396,3.857 0,6.249c0.413,2.427 1.717,5.286 2.643,8.1c0.962,2.886 1.438,11.426 1.438,11.426c0,0 3.282,2.104 14.097,-0.062c10.797,-2.158 14.555,-4.594 14.555,-4.594Z" style="fill:none;stroke:#333;stroke-width:3.53px;"/><path id="path4990" d="M102.73,40.684c0,0 2.94,1.159 5.178,3.371c2.518,2.49 3.237,4.477 4.037,6.671c0.575,1.6 1.951,5.502 2.463,9.062c0.198,1.393 0.576,6.023 0.576,6.023" style="fill:none;stroke:#333;stroke-width:2.36px;stroke-linecap:round;"/><path id="path4994" d="M228.322,101.197c1.384,-0.342 0.701,-0.342 1.205,-0.98c0.521,-0.656 0.179,-1.151 0.179,-2.131c0,-0.971 0,-1.95 0.342,-2.76c0.342,-0.809 0.701,-0.485 1.546,-0.656c0.872,-0.153 1.951,-0.288 2.976,-0.44c1.043,-0.162 2.742,-0.639 4.828,-2.104c2.068,-1.466 4.333,-3.039 5.367,-4.342c1.043,-1.295 2.104,-5.664 1.798,-7.282c-0.342,-1.781 1.816,-3.812 1.816,-5.7c0,-1.78 0.549,-2.329 -0.557,-3.992c-0.881,-1.34 -1.034,-3.803 -0.387,-4.405c0.728,-0.674 1.546,-1.106 2.877,-0.854c1.349,0.26 2.382,1.124 2.382,1.124c0,0 0.351,-2.284 0.693,-3.075c0.341,-0.818 1.294,-1.798 2.22,-2.365c0.998,-0.593 2.257,-1.096 3.524,-1.015c1.205,0.071 2.194,0.782 3.057,1.438c0.854,0.656 1.349,1.429 1.798,2.535c0.459,1.097 0.809,2.976 0.63,4.441c-0.171,1.466 -1.034,2.599 -1.034,2.599c0,0 0.404,0.323 1.744,0.422c1.357,0.081 2.041,-0.252 3.155,0.081c1.259,0.369 1.969,1.618 2.536,2.922c0.611,1.384 0.278,3.38 -0.351,4.558c-0.827,1.582 -2.068,2.607 -3.272,3.74c-1.232,1.151 -5.88,3.425 -5.88,3.425l-1.043,0.315c0,0 3.632,0.656 4.666,1.303c1.025,0.648 2.077,1.789 2.418,2.769c0.387,1.079 0.567,1.718 -0.152,3.749c-0.549,1.538 -1.924,2.437 -3.3,2.931c-1.393,0.486 -2.427,0.333 -3.812,0.486c-1.375,0.152 -3.623,0 -3.623,0c0,0 1.385,0.638 1.906,1.627c0.522,0.98 0.845,2.274 0.171,3.416c-0.692,1.142 -1.385,1.789 -2.931,2.275c-1.564,0.494 -3.641,0.755 -5.547,0.647c-2.931,-0.153 -7.435,-1.133 -7.435,-1.133c0,0 0.531,0.98 0.531,2.275c0,1.303 -0.171,1.789 -1.394,2.598c-1.205,0.827 -1.375,0.656 -3.281,0.827c-1.897,0.153 -3.794,-0.171 -5.359,-0.494c-1.555,-0.333 -5.879,-1.142 -7.605,-1.466c-1.717,-0.324 -5.7,-0.962 -7.264,-1.294c0,0 -5.871,-0.819 -8.298,-1.313c-2.419,-0.477 -5.35,-0.647 -7.085,-1.133c-1.717,-0.485 -2.94,-0.98 -3.803,-2.445c-0.863,-1.466 -1.033,-3.084 -0.863,-3.902c0.171,-0.818 1.223,-1.789 1.223,-1.789c0,0 -2.068,0.189 -3.668,0.009c-1.376,-0.171 -2.904,-0.638 -3.947,-1.618c-1.043,-0.962 -1.555,-1.583 -2.076,-3.03c-0.522,-1.483 -0.441,-2.086 -0.261,-3.227c0.162,-1.142 0.953,-1.897 1.654,-2.554c0.683,-0.656 1.726,-0.809 2.23,-0.98c0.521,-0.161 -2.176,-1.474 -2.176,-1.474c0,0 -2.32,-0.8 -3.344,-1.933c-1.034,-1.142 -2.221,-3.155 -2.68,-4.927c-0.539,-1.977 -0.8,-3.704 -0.278,-4.989c0.521,-1.304 1.222,-1.969 2.086,-2.131c0.872,-0.171 2.247,0.162 2.939,0.486c0.684,0.323 1.726,0.971 1.726,0.971c0,0 -3.254,-3.3 -4.504,-5.26c-1.069,-1.69 -1.258,-2.616 -1.708,-4.567c-0.35,-1.609 -0.261,-3.308 0.513,-4.657c0.998,-1.726 2.067,-2.598 3.11,-2.94c1.16,-0.35 2.221,-0.197 3.111,0.342c0.728,0.441 1.726,1.789 1.726,1.789c0,0 -0.863,-2.283 0,-3.911c0.863,-1.627 1.528,-2.301 3.147,-2.993c1.177,-0.504 2.661,-0.675 4.063,-0.504c1.367,0.162 2.329,0.746 3.147,1.69c0.71,0.845 1.16,1.664 1.339,2.796c0.162,1.133 -0.081,2.239 -0.278,2.877c-0.306,0.98 -0.693,1.834 -0.693,1.834c0,0 2.068,-0.485 3.462,-0.323c1.069,0.125 1.87,0.341 2.733,1.537c0.809,1.079 0.269,3.632 -0.711,4.324c-1.888,1.331 -0.665,1.726 -1.438,2.661c-0.998,1.214 -1.627,1.699 -2.221,2.769c-0.557,0.998 -0.782,1.664 -0.89,3.327c-0.063,1.052 0.45,2.121 0.45,2.121c0,0 0.198,0.657 0.665,2.653c0.414,1.789 1.106,2.175 1.259,3.389c0.18,1.312 1.178,3.578 2.22,4.882c1.043,1.312 1.906,3.11 3.282,4.081c1.393,0.971 3.281,1.951 4.504,2.598c0,0 0.333,0.324 0.333,1.457c0,1.141 -0.162,1.798 -0.333,3.263c-0.171,1.448 -0.512,0.98 -0.36,1.951c0.189,0.98 0.36,0.98 1.223,1.465c0.854,0.495 2.239,0.81 2.239,0.81l4.495,0.503l2.598,0Z" style="fill:#333;fill-rule:nonzero;"/><path id="path4998" d="M213.291,64.393c0,0 -3.416,1.816 -4.621,3.218c-1.214,1.421 -1.609,2.419 -2.211,4.028c-0.603,1.609 -0.603,5.826 0,8.244c0.602,2.4 1.06,3.38 2.283,5.187c1.205,1.807 1.978,3.273 4.594,4.873c2.616,1.609 4.918,3.291 4.918,3.291l-3.282,10.68l14.151,2.409l0.225,-10.635c0,0 1.267,-0.234 3.236,-0.719c1.115,-0.27 2.661,-0.953 5.071,-1.96c2.409,-0.998 3.74,-2.239 5.349,-3.641c1.555,-1.367 2.607,-2.994 3.641,-5.278c0.872,-1.888 1.007,-3.011 1.007,-5.834c0,-2.787 -1.403,-5.61 -1.403,-5.61l-2.418,-2.823c0,0 -4.495,4.54 -16.614,1.951c-10.779,-2.32 -13.926,-7.381 -13.926,-7.381" style="fill:#333;fill-rule:nonzero;stroke:#0499db;stroke-width:1px;stroke-linejoin:round;stroke-miterlimit:1.41421;"/><path id="path5002" d="M213.291,64.393c0,0 -3.416,1.816 -4.621,3.218c-1.214,1.421 -1.609,2.419 -2.211,4.028c-0.603,1.609 -0.603,5.826 0,8.244c0.602,2.4 1.06,3.38 2.283,5.187c1.205,1.807 1.978,3.273 4.594,4.873c2.616,1.609 4.918,3.291 4.918,3.291l-3.282,10.68l14.151,2.409l0.225,-10.635c0,0 1.267,-0.234 3.236,-0.719c1.115,-0.27 2.661,-0.953 5.071,-1.96c2.409,-0.998 3.74,-2.239 5.349,-3.641c1.555,-1.367 2.607,-2.994 3.641,-5.278c0.872,-1.888 1.007,-3.011 1.007,-5.834c0,-2.787 -1.403,-5.61 -1.403,-5.61l-2.418,-2.823c0,0 -4.495,4.54 -16.614,1.951c-10.779,-2.32 -13.926,-7.381 -13.926,-7.381Z" style="fill:none;stroke:#fff;stroke-width:4.71px;"/><path id="path5006" d="M213.51,68.037c0,0 2.922,-7.48 3.345,-9.647c0.566,-2.913 0.647,-7.057 1.663,-9.458c1.007,-2.418 2.814,-5.825 4.423,-7.426c1.592,-1.618 3.614,-3.623 5.619,-4.63c2.005,-1.007 5.026,-2.814 5.026,-2.814c0,0 2.005,-2.607 3.614,-2.202c1.609,0.395 2.823,3.209 2.823,3.209c0,0 2.274,2.598 4.018,5.421c1.034,1.691 1.744,4.226 2.212,6.428c0.324,1.574 0.387,3.857 -0.018,6.249c-0.405,2.427 -1.69,5.286 -2.616,8.1c-0.989,2.886 -1.457,11.426 -1.457,11.426c0,0 -3.272,2.104 -14.069,-0.062c-10.807,-2.158 -14.583,-4.594 -14.583,-4.594" style="fill:#fff;fill-rule:nonzero;"/><path id="path5010" d="M213.51,68.037c0,0 2.922,-7.48 3.345,-9.647c0.566,-2.913 0.647,-7.057 1.663,-9.458c1.007,-2.418 2.814,-5.825 4.423,-7.426c1.592,-1.618 3.614,-3.623 5.619,-4.63c2.005,-1.007 5.026,-2.814 5.026,-2.814c0,0 2.005,-2.607 3.614,-2.202c1.609,0.395 2.823,3.209 2.823,3.209c0,0 2.274,2.598 4.018,5.421c1.034,1.691 1.744,4.226 2.212,6.428c0.324,1.574 0.387,3.857 -0.018,6.249c-0.405,2.427 -1.69,5.286 -2.616,8.1c-0.989,2.886 -1.457,11.426 -1.457,11.426c0,0 -3.272,2.104 -14.069,-0.062c-10.807,-2.158 -14.583,-4.594 -14.583,-4.594Z" style="fill:none;stroke:#333;stroke-width:3.53px;"/><path id="path5014" d="M234.59,40.684c0,0 -2.949,1.159 -5.17,3.371c-2.517,2.49 -3.236,4.477 -4.045,6.671c-0.566,1.6 -1.951,5.502 -2.454,9.062c-0.207,1.393 -0.576,6.023 -0.576,6.023" style="fill:none;stroke:#333;stroke-width:2.36px;stroke-linecap:round;"/><path id="path5018" d="M67.691,152.254l-38.073,-113.834c0,0 -0.783,-3.147 0.395,-5.493c1.169,-2.374 4.316,-3.542 6.671,-3.542c2.355,0 3.911,0.386 5.484,2.364c1.564,1.951 1.969,2.742 2.76,5.098c0.782,2.355 1.16,3.919 1.16,3.919c0,0 3.551,-1.393 5.502,-1.564c3.326,-0.315 6.257,0.809 8.037,2.787c1.483,1.627 2.994,4.279 3.389,6.968c0.468,3.191 0,5.079 -0.557,6.49c-0.836,2.068 -2.625,4.559 -4.981,5.736c-2.346,1.169 -6.275,0.782 -6.275,0.782l29.83,68.704l-12.569,23.159l-0.773,-1.574Z" style="fill:#fff;fill-rule:nonzero;"/><path id="path5022" d="M67.691,152.254l-38.073,-113.834c0,0 -0.783,-3.147 0.395,-5.493c1.169,-2.374 4.316,-3.542 6.671,-3.542c2.355,0 3.911,0.386 5.484,2.364c1.564,1.951 1.969,2.742 2.76,5.098c0.782,2.355 1.16,3.919 1.16,3.919c0,0 3.551,-1.393 5.502,-1.564c3.326,-0.315 6.257,0.809 8.037,2.787c1.483,1.627 2.994,4.279 3.389,6.968c0.468,3.191 0,5.079 -0.557,6.49c-0.836,2.068 -2.625,4.559 -4.981,5.736c-2.346,1.169 -6.275,0.782 -6.275,0.782l29.83,68.704l-12.569,23.159l-0.773,-1.574Z" style="fill:none;stroke:#333;stroke-width:4.71px;"/><path id="path5026" d="M62.507,131.67c0,0 1.816,-1.906 3.074,-2.112c1.124,-0.171 2.688,0.485 3.246,1.222c0.575,0.756 1.663,2.59 1.528,3.444c-0.117,0.674 0,1.618 -0.243,2.499c-0.224,0.755 -1.132,2.158 -2.121,2.4c-0.989,0.243 -3.093,0 -3.093,0l-2.391,-7.453Z" style="fill:#333;fill-rule:nonzero;"/></g><path id="path4678" d="M404.281,70.494l10.518,45.554c2.266,10.725 4.54,21.658 6.392,32.581l0.414,0c2.077,-10.923 5.151,-22.062 8.253,-32.383l13,-45.752l20.606,0l12.577,44.529c3.308,11.75 5.781,22.683 8.037,33.606l0.414,0c1.645,-10.923 3.713,-21.856 6.59,-33.606l11.139,-44.529l24.957,0l-31.538,100.395l-23.519,0l-11.966,-40.816c-3.074,-10.51 -5.349,-20.012 -7.615,-32.158l-0.404,0c-2.068,12.37 -4.549,22.26 -7.642,32.158l-12.793,40.816l-23.689,0l-29.695,-100.395l25.964,0Z" style="fill:#333;fill-rule:nonzero;stroke:#333;stroke-width:1px;stroke-linejoin:round;stroke-miterlimit:1.41421;"/><path id="path4682" d="M404.281,70.494l10.518,45.554c2.266,10.725 4.54,21.658 6.392,32.581l0.414,0c2.077,-10.923 5.151,-22.062 8.253,-32.383l13,-45.752l20.606,0l12.577,44.529c3.308,11.75 5.781,22.683 8.037,33.606l0.414,0c1.645,-10.923 3.713,-21.856 6.59,-33.606l11.139,-44.529l24.957,0l-31.538,100.395l-23.519,0l-11.966,-40.816c-3.074,-10.51 -5.349,-20.012 -7.615,-32.158l-0.404,0c-2.068,12.37 -4.549,22.26 -7.642,32.158l-12.793,40.816l-23.689,0l-29.695,-100.395l25.964,0Z" style="fill:#333;fill-rule:nonzero;stroke:#333;stroke-width:1.11px;"/><path id="path4686" d="M559.358,110.064c1.007,-10.303 7.615,-24.534 23.276,-24.534c16.893,0 21.028,15.265 20.83,24.534l-44.106,0Zm67.193,17.747c0.423,-2.275 0.827,-5.988 0.827,-10.725c0,-22.072 -10.518,-48.862 -43.306,-48.862c-32.158,0 -49.059,26.179 -49.059,54.013c0,30.72 19.158,50.921 51.738,50.921c14.412,0 26.405,-2.886 35.044,-6.383l-3.704,-17.54c-7.623,2.904 -16.074,4.549 -27.833,4.549c-16.075,0 -30.307,-7.84 -30.9,-25.973l67.193,0Z" style="fill:#333;fill-rule:nonzero;stroke:#333;stroke-width:1px;stroke-linejoin:round;stroke-miterlimit:1.41421;"/><path id="path4690" d="M559.358,110.064c1.007,-10.303 7.615,-24.534 23.276,-24.534c16.893,0 21.028,15.265 20.83,24.534l-44.106,0Zm67.193,17.747c0.423,-2.275 0.827,-5.988 0.827,-10.725c0,-22.072 -10.518,-48.862 -43.306,-48.862c-32.158,0 -49.059,26.179 -49.059,54.013c0,30.72 19.158,50.921 51.738,50.921c14.412,0 26.405,-2.886 35.044,-6.383l-3.704,-17.54c-7.623,2.904 -16.074,4.549 -27.833,4.549c-16.075,0 -30.307,-7.84 -30.9,-25.973l67.193,0Z" style="fill:#333;fill-rule:nonzero;stroke:#333;stroke-width:1.11px;"/><path id="path4694" d="M646.53,147.601c5.799,3.506 16.704,7.21 25.775,7.21c11.148,0 16.084,-4.531 16.084,-11.148c0,-6.796 -4.127,-10.293 -16.47,-14.618c-19.59,-6.805 -27.834,-17.531 -27.645,-29.281c0,-17.738 14.636,-31.547 37.966,-31.547c11.093,0 20.794,2.886 26.593,5.979l-4.981,17.935c-4.324,-2.472 -12.353,-5.78 -21.226,-5.78c-9.071,0 -14.034,4.342 -14.034,10.518c0,6.401 4.765,9.494 17.531,14.034c18.161,6.59 26.809,15.868 26.809,30.702c0,18.151 -14.222,31.555 -40.824,31.555c-12.155,0 -23.096,-3.092 -30.531,-7.219l4.953,-18.34Z" style="fill:#333;fill-rule:nonzero;stroke:#333;stroke-width:1px;stroke-linejoin:round;stroke-miterlimit:1.41421;"/><path id="path4698" d="M646.53,147.601c5.799,3.506 16.704,7.21 25.775,7.21c11.148,0 16.084,-4.531 16.084,-11.148c0,-6.796 -4.127,-10.293 -16.47,-14.618c-19.59,-6.805 -27.834,-17.531 -27.645,-29.281c0,-17.738 14.636,-31.547 37.966,-31.547c11.093,0 20.794,2.886 26.593,5.979l-4.981,17.935c-4.324,-2.472 -12.353,-5.78 -21.226,-5.78c-9.071,0 -14.034,4.342 -14.034,10.518c0,6.401 4.765,9.494 17.531,14.034c18.161,6.59 26.809,15.868 26.809,30.702c0,18.151 -14.222,31.555 -40.824,31.555c-12.155,0 -23.096,-3.092 -30.531,-7.219l4.953,-18.34Z" style="fill:#333;fill-rule:nonzero;stroke:#333;stroke-width:1.11px;"/><path id="path4702" d="M762.834,44.718l0,25.775l24.111,0l0,18.969l-24.111,0l0,44.313c0,12.164 3.29,18.574 12.981,18.574c4.747,0 7.022,-0.423 9.926,-1.25l0.386,19.383c-3.704,1.448 -10.312,2.679 -18.349,2.679c-9.26,0 -17.117,-3.299 -21.846,-8.451c-5.376,-5.78 -7.849,-14.851 -7.849,-28.049l0,-47.199l-14.411,0l0,-18.969l14.411,0l0,-18.565l24.751,-7.21Z" style="fill:#333;fill-rule:nonzero;stroke:#333;stroke-width:1px;stroke-linejoin:round;stroke-miterlimit:1.41421;"/><path id="path4706" d="M762.834,44.718l0,25.775l24.111,0l0,18.969l-24.111,0l0,44.313c0,12.164 3.29,18.574 12.981,18.574c4.747,0 7.022,-0.423 9.926,-1.25l0.386,19.383c-3.704,1.448 -10.312,2.679 -18.349,2.679c-9.26,0 -17.117,-3.299 -21.846,-8.451c-5.376,-5.78 -7.849,-14.851 -7.849,-28.049l0,-47.199l-14.411,0l0,-18.969l14.411,0l0,-18.565l24.751,-7.21Z" style="fill:#333;fill-rule:nonzero;stroke:#333;stroke-width:1.11px;"/><path id="path4710" d="M383.702,286.44c5.772,3.515 16.677,7.21 25.757,7.21c11.13,0 16.084,-4.531 16.084,-11.13c0,-6.796 -4.109,-10.311 -16.488,-14.636c-19.581,-6.805 -27.834,-17.522 -27.636,-29.281c0,-17.729 14.654,-31.538 37.947,-31.538c11.139,0 20.813,2.886 26.594,5.961l-4.936,17.953c-4.36,-2.472 -12.362,-5.771 -21.253,-5.771c-9.08,0 -14.025,4.333 -14.025,10.5c0,6.41 4.747,9.485 17.54,14.034c18.134,6.599 26.8,15.895 26.8,30.729c0,18.133 -14.231,31.529 -40.834,31.529c-12.154,0 -23.078,-3.093 -30.512,-7.202l4.962,-18.358Z" style="fill:#333;fill-rule:nonzero;stroke:#333;stroke-width:1px;stroke-linejoin:round;stroke-miterlimit:1.41421;"/><path id="path4714" d="M383.702,286.44c5.772,3.515 16.677,7.21 25.757,7.21c11.13,0 16.084,-4.531 16.084,-11.13c0,-6.796 -4.109,-10.311 -16.488,-14.636c-19.581,-6.805 -27.834,-17.522 -27.636,-29.281c0,-17.729 14.654,-31.538 37.947,-31.538c11.139,0 20.813,2.886 26.594,5.961l-4.936,17.953c-4.36,-2.472 -12.362,-5.771 -21.253,-5.771c-9.08,0 -14.025,4.333 -14.025,10.5c0,6.41 4.747,9.485 17.54,14.034c18.134,6.599 26.8,15.895 26.8,30.729c0,18.133 -14.231,31.529 -40.834,31.529c-12.154,0 -23.078,-3.093 -30.512,-7.202l4.962,-18.358Z" style="fill:#333;fill-rule:nonzero;stroke:#333;stroke-width:1.11px;"/><path id="path4718" d="M560.807,279.636c0,11.948 0.405,21.838 0.827,30.118l-22.277,0l-1.241,-15.275l-0.396,0c-4.342,7.219 -14.24,17.522 -32.185,17.522c-18.34,0 -35.035,-10.932 -35.035,-43.692l0,-58.985l25.353,0l0,54.642c0,16.704 5.367,27.43 18.762,27.43c10.105,0 16.713,-7.229 19.374,-13.612c0.819,-2.265 1.466,-4.953 1.466,-7.839l0,-60.621l25.352,0l0,70.312Z" style="fill:#333;fill-rule:nonzero;stroke:#333;stroke-width:1px;stroke-linejoin:round;stroke-miterlimit:1.41421;"/><path id="path4722" d="M560.807,279.636c0,11.948 0.405,21.838 0.827,30.118l-22.277,0l-1.241,-15.275l-0.396,0c-4.342,7.219 -14.24,17.522 -32.185,17.522c-18.34,0 -35.035,-10.932 -35.035,-43.692l0,-58.985l25.353,0l0,54.642c0,16.704 5.367,27.43 18.762,27.43c10.105,0 16.713,-7.229 19.374,-13.612c0.819,-2.265 1.466,-4.953 1.466,-7.839l0,-60.621l25.352,0l0,70.312Z" style="fill:#333;fill-rule:nonzero;stroke:#333;stroke-width:1.11px;"/><path id="path4726" d="M586.97,286.44c5.781,3.515 16.695,7.21 25.784,7.21c11.139,0 16.083,-4.531 16.083,-11.13c0,-6.796 -4.126,-10.311 -16.488,-14.636c-19.598,-6.805 -27.851,-17.522 -27.636,-29.281c0,-17.729 14.645,-31.538 37.939,-31.538c11.13,0 20.822,2.886 26.602,5.961l-4.962,17.953c-4.316,-2.472 -12.371,-5.771 -21.217,-5.771c-9.08,0 -14.034,4.333 -14.034,10.5c0,6.41 4.72,9.485 17.531,14.034c18.142,6.599 26.791,15.895 26.791,30.729c0,18.133 -14.205,31.529 -40.807,31.529c-12.164,0 -23.096,-3.093 -30.531,-7.202l4.945,-18.358Z" style="fill:#333;fill-rule:nonzero;stroke:#333;stroke-width:1px;stroke-linejoin:round;stroke-miterlimit:1.41421;"/><path id="path4730" d="M586.97,286.44c5.781,3.515 16.695,7.21 25.784,7.21c11.139,0 16.083,-4.531 16.083,-11.13c0,-6.796 -4.126,-10.311 -16.488,-14.636c-19.598,-6.805 -27.851,-17.522 -27.636,-29.281c0,-17.729 14.645,-31.538 37.939,-31.538c11.13,0 20.822,2.886 26.602,5.961l-4.962,17.953c-4.316,-2.472 -12.371,-5.771 -21.217,-5.771c-9.08,0 -14.034,4.333 -14.034,10.5c0,6.41 4.72,9.485 17.531,14.034c18.142,6.599 26.791,15.895 26.791,30.729c0,18.133 -14.205,31.529 -40.807,31.529c-12.164,0 -23.096,-3.093 -30.531,-7.202l4.945,-18.358Z" style="fill:#333;fill-rule:nonzero;stroke:#333;stroke-width:1.11px;"/><path id="path4734" d="M672.957,286.44c5.772,3.515 16.704,7.21 25.775,7.21c11.121,0 16.075,-4.531 16.075,-11.13c0,-6.796 -4.127,-10.311 -16.497,-14.636c-19.581,-6.805 -27.852,-17.522 -27.627,-29.281c0,-17.729 14.636,-31.538 37.938,-31.538c11.121,0 20.822,2.886 26.594,5.961l-4.954,17.953c-4.315,-2.472 -12.371,-5.771 -21.208,-5.771c-9.08,0 -14.025,4.333 -14.025,10.5c0,6.41 4.711,9.485 17.513,14.034c18.151,6.599 26.8,15.895 26.8,30.729c0,18.133 -14.222,31.529 -40.834,31.529c-12.154,0 -23.078,-3.093 -30.495,-7.202l4.945,-18.358Z" style="fill:#333;fill-rule:nonzero;stroke:#333;stroke-width:1px;stroke-linejoin:round;stroke-miterlimit:1.41421;"/><path id="path4738" d="M672.957,286.44c5.772,3.515 16.704,7.21 25.775,7.21c11.121,0 16.075,-4.531 16.075,-11.13c0,-6.796 -4.127,-10.311 -16.497,-14.636c-19.581,-6.805 -27.852,-17.522 -27.627,-29.281c0,-17.729 14.636,-31.538 37.938,-31.538c11.121,0 20.822,2.886 26.594,5.961l-4.954,17.953c-4.315,-2.472 -12.371,-5.771 -21.208,-5.771c-9.08,0 -14.025,4.333 -14.025,10.5c0,6.41 4.711,9.485 17.513,14.034c18.151,6.599 26.8,15.895 26.8,30.729c0,18.133 -14.222,31.529 -40.834,31.529c-12.154,0 -23.078,-3.093 -30.495,-7.202l4.945,-18.358Z" style="fill:#333;fill-rule:nonzero;stroke:#333;stroke-width:1.11px;"/><path id="path4742" d="M778.118,248.916c1.016,-10.312 7.624,-24.526 23.285,-24.526c16.91,0 21.028,15.239 20.83,24.526l-44.115,0Zm67.211,17.72c0.404,-2.257 0.809,-5.961 0.809,-10.717c0,-22.071 -10.519,-48.853 -43.279,-48.853c-32.167,0 -49.096,26.18 -49.096,54.014c0,30.71 19.185,50.92 51.766,50.92c14.429,0 26.386,-2.885 35.035,-6.374l-3.713,-17.54c-7.606,2.904 -16.092,4.531 -27.816,4.531c-16.092,0 -30.324,-7.839 -30.917,-25.981l67.211,0Z" style="fill:#333;fill-rule:nonzero;stroke:#333;stroke-width:1px;stroke-linejoin:round;stroke-miterlimit:1.41421;"/><path id="path4746" d="M778.118,248.916c1.016,-10.312 7.624,-24.526 23.285,-24.526c16.91,0 21.028,15.239 20.83,24.526l-44.115,0Zm67.211,17.72c0.404,-2.257 0.809,-5.961 0.809,-10.717c0,-22.071 -10.519,-48.853 -43.279,-48.853c-32.167,0 -49.096,26.18 -49.096,54.014c0,30.71 19.185,50.92 51.766,50.92c14.429,0 26.386,-2.885 35.035,-6.374l-3.713,-17.54c-7.606,2.904 -16.092,4.531 -27.816,4.531c-16.092,0 -30.324,-7.839 -30.917,-25.981l67.211,0Z" style="fill:#333;fill-rule:nonzero;stroke:#333;stroke-width:1.11px;"/><path id="path4750" d="M881.787,209.322l11.966,18.978c3.291,5.358 6.185,10.303 9.062,15.464l0.63,0c2.885,-5.583 5.565,-10.726 8.666,-15.868l11.13,-18.574l27.645,0l-33.623,48.044l34.216,52.386l-28.66,0l-12.362,-20.03c-3.084,-5.341 -6.185,-10.699 -9.08,-16.264l-0.396,0c-2.886,5.754 -5.771,10.708 -9.071,16.264l-11.561,20.03l-28.032,0l34.837,-51.137l-33.614,-49.293l28.247,0Z" style="fill:#333;fill-rule:nonzero;stroke:#333;stroke-width:1px;stroke-linejoin:round;stroke-miterlimit:1.41421;"/><path id="path4754" d="M881.787,209.322l11.966,18.978c3.291,5.358 6.185,10.303 9.062,15.464l0.63,0c2.885,-5.583 5.565,-10.726 8.666,-15.868l11.13,-18.574l27.645,0l-33.623,48.044l34.216,52.386l-28.66,0l-12.362,-20.03c-3.084,-5.341 -6.185,-10.699 -9.08,-16.264l-0.396,0c-2.886,5.754 -5.771,10.708 -9.071,16.264l-11.561,20.03l-28.032,0l34.837,-51.137l-33.614,-49.293l28.247,0Z" style="fill:#333;fill-rule:nonzero;stroke:#333;stroke-width:1.11px;"/><path id="path4758" d="M458.745,444.323c-5.377,2.473 -15.886,5.377 -28.445,5.377c-31.358,0 -51.766,-20.211 -51.766,-51.344c0,-30.108 20.623,-53.618 55.874,-53.618c9.269,0 18.772,2.077 24.525,4.756l-4.522,18.97c-4.108,-1.861 -10.105,-3.929 -19.176,-3.929c-19.383,0 -30.72,14.24 -30.72,32.563c0,20.65 13.405,32.391 30.72,32.391c8.874,0 15.068,-1.861 20.003,-3.919l3.507,18.753Z" style="fill:#333;fill-rule:nonzero;stroke:#333;stroke-width:1px;stroke-linejoin:round;stroke-miterlimit:1.41421;"/><path id="path4762" d="M458.745,444.323c-5.377,2.473 -15.886,5.377 -28.445,5.377c-31.358,0 -51.766,-20.211 -51.766,-51.344c0,-30.108 20.623,-53.618 55.874,-53.618c9.269,0 18.772,2.077 24.525,4.756l-4.522,18.97c-4.108,-1.861 -10.105,-3.929 -19.176,-3.929c-19.383,0 -30.72,14.24 -30.72,32.563c0,20.65 13.405,32.391 30.72,32.391c8.874,0 15.068,-1.861 20.003,-3.919l3.507,18.753Z" style="fill:#333;fill-rule:nonzero;stroke:#333;stroke-width:1.11px;"/><path id="path4766" d="M519.965,431.329c-15.257,0 -24.733,-14.627 -24.733,-33.992c0,-16.731 7.211,-34.019 25.128,-34.019c17.324,0 24.337,17.935 24.337,33.587c0,20.21 -10.087,34.424 -24.535,34.424l-0.197,0Zm-0.198,18.367c25.361,0 51.343,-16.497 51.343,-53.393c0,-30.531 -20.003,-51.568 -49.887,-51.568c-30.324,0 -51.981,20.21 -51.981,53.195c0,32.176 21.855,51.766 50.318,51.766l0.207,0Z" style="fill:#333;fill-rule:nonzero;stroke:#333;stroke-width:1px;stroke-linejoin:round;stroke-miterlimit:1.41421;"/><path id="path4770" d="M519.965,431.329c-15.257,0 -24.733,-14.627 -24.733,-33.992c0,-16.731 7.211,-34.019 25.128,-34.019c17.324,0 24.337,17.935 24.337,33.587c0,20.21 -10.087,34.424 -24.535,34.424l-0.197,0Zm-0.198,18.367c25.361,0 51.343,-16.497 51.343,-53.393c0,-30.531 -20.003,-51.568 -49.887,-51.568c-30.324,0 -51.981,20.21 -51.981,53.195c0,32.176 21.855,51.766 50.318,51.766l0.207,0Z" style="fill:#333;fill-rule:nonzero;stroke:#333;stroke-width:1.11px;"/><path id="path4774" d="M681.833,417.318c0,11.948 0.405,21.864 0.809,30.108l-22.269,0l-1.231,-15.266l-0.432,0c-4.297,7.22 -14.204,17.54 -32.158,17.54c-18.34,0 -35.044,-10.932 -35.044,-43.71l0,-58.967l25.371,0l0,54.625c0,16.703 5.349,27.42 18.744,27.42c10.114,0 16.731,-7.21 19.392,-13.611c0.809,-2.257 1.448,-4.927 1.448,-7.831l0,-60.603l25.37,0l0,70.295Z" style="fill:#333;fill-rule:nonzero;stroke:#333;stroke-width:1px;stroke-linejoin:round;stroke-miterlimit:1.41421;"/><path id="path4778" d="M681.833,417.318c0,11.948 0.405,21.864 0.809,30.108l-22.269,0l-1.231,-15.266l-0.432,0c-4.297,7.22 -14.204,17.54 -32.158,17.54c-18.34,0 -35.044,-10.932 -35.044,-43.71l0,-58.967l25.371,0l0,54.625c0,16.703 5.349,27.42 18.744,27.42c10.114,0 16.731,-7.21 19.392,-13.611c0.809,-2.257 1.448,-4.927 1.448,-7.831l0,-60.603l25.37,0l0,70.295Z" style="fill:#333;fill-rule:nonzero;stroke:#333;stroke-width:1.11px;"/><path id="path4782" d="M709.261,376.897c0,-11.517 -0.225,-21.217 -0.836,-29.875l22.241,0l1.232,15.041l0.638,0c4.316,-7.831 15.257,-17.325 31.952,-17.325c17.54,0 35.673,11.364 35.673,43.109l0,59.578l-25.379,0l0,-56.692c0,-14.448 -5.35,-25.353 -19.15,-25.353c-10.132,0 -17.117,7.21 -19.796,14.825c-0.621,2.265 -1.034,5.385 -1.034,8.253l0,58.967l-25.541,0l0,-70.528Z" style="fill:#333;fill-rule:nonzero;stroke:#333;stroke-width:1px;stroke-linejoin:round;stroke-miterlimit:1.41421;"/><path id="path4786" d="M709.261,376.897c0,-11.517 -0.225,-21.217 -0.836,-29.875l22.241,0l1.232,15.041l0.638,0c4.316,-7.831 15.257,-17.325 31.952,-17.325c17.54,0 35.673,11.364 35.673,43.109l0,59.578l-25.379,0l0,-56.692c0,-14.448 -5.35,-25.353 -19.15,-25.353c-10.132,0 -17.117,7.21 -19.796,14.825c-0.621,2.265 -1.034,5.385 -1.034,8.253l0,58.967l-25.541,0l0,-70.528Z" style="fill:#333;fill-rule:nonzero;stroke:#333;stroke-width:1.11px;"/><path id="path4790" d="M855.185,321.242l0,25.775l24.121,0l0,18.97l-24.121,0l0,44.322c0,12.164 3.281,18.565 12.991,18.565c4.747,0 7.012,-0.414 9.88,-1.25l0.432,19.392c-3.731,1.429 -10.312,2.679 -18.349,2.679c-9.287,0 -17.109,-3.308 -21.865,-8.469c-5.358,-5.754 -7.83,-14.834 -7.83,-28.022l0,-47.217l-14.448,0l0,-18.97l14.448,0l0,-18.564l24.741,-7.211Z" style="fill:#333;fill-rule:nonzero;stroke:#333;stroke-width:1px;stroke-linejoin:round;stroke-miterlimit:1.41421;"/><path id="path4794" d="M855.185,321.242l0,25.775l24.121,0l0,18.97l-24.121,0l0,44.322c0,12.164 3.281,18.565 12.991,18.565c4.747,0 7.012,-0.414 9.88,-1.25l0.432,19.392c-3.731,1.429 -10.312,2.679 -18.349,2.679c-9.287,0 -17.109,-3.308 -21.865,-8.469c-5.358,-5.754 -7.83,-14.834 -7.83,-28.022l0,-47.217l-14.448,0l0,-18.97l14.448,0l0,-18.564l24.741,-7.211Z" style="fill:#333;fill-rule:nonzero;stroke:#333;stroke-width:1.11px;"/><path id="path4798" d="M915.764,347.019l18.16,53.825c2.05,6.149 4.1,13.791 5.565,19.563l0.585,0c1.672,-5.772 3.506,-13.189 5.367,-19.797l15.661,-53.591l27.222,0l-25.154,68.434c-13.792,37.534 -23.096,54.247 -35.044,64.559c-9.908,8.855 -20.175,12.164 -26.594,12.964l-5.78,-21.433c4.342,-1.043 9.7,-3.497 14.852,-7.003c4.755,-3.111 10.32,-9.071 13.818,-15.877c1.042,-1.861 1.645,-3.299 1.645,-4.549c0,-1.025 -0.405,-2.463 -1.448,-4.936l-36.68,-92.159l27.825,0Z" style="fill:#333;fill-rule:nonzero;stroke:#333;stroke-width:1px;stroke-linejoin:round;stroke-miterlimit:1.41421;"/><path id="path4802" d="M915.764,347.019l18.16,53.825c2.05,6.149 4.1,13.791 5.565,19.563l0.585,0c1.672,-5.772 3.506,-13.189 5.367,-19.797l15.661,-53.591l27.222,0l-25.154,68.434c-13.792,37.534 -23.096,54.247 -35.044,64.559c-9.908,8.855 -20.175,12.164 -26.594,12.964l-5.78,-21.433c4.342,-1.043 9.7,-3.497 14.852,-7.003c4.755,-3.111 10.32,-9.071 13.818,-15.877c1.042,-1.861 1.645,-3.299 1.645,-4.549c0,-1.025 -0.405,-2.463 -1.448,-4.936l-36.68,-92.159l27.825,0Z" style="fill:#333;fill-rule:nonzero;stroke:#333;stroke-width:1.11px;"/><path id="path4806" d="M459.623,598.009c-5.376,2.472 -15.904,5.367 -28.463,5.367c-31.34,0 -51.748,-20.201 -51.748,-51.343c0,-30.108 20.624,-53.6 55.865,-53.6c9.278,0 18.772,2.059 24.544,4.729l-4.54,18.978c-4.109,-1.852 -10.087,-3.928 -19.176,-3.928c-19.365,0 -30.72,14.231 -30.72,32.598c0,20.606 13.395,32.365 30.72,32.365c8.864,0 15.067,-1.861 20.012,-3.947l3.506,18.781Z" style="fill:#333;fill-rule:nonzero;stroke:#333;stroke-width:1px;stroke-linejoin:round;stroke-miterlimit:1.41421;"/><path id="path4810" d="M459.623,598.009c-5.376,2.472 -15.904,5.367 -28.463,5.367c-31.34,0 -51.748,-20.201 -51.748,-51.343c0,-30.108 20.624,-53.6 55.865,-53.6c9.278,0 18.772,2.059 24.544,4.729l-4.54,18.978c-4.109,-1.852 -10.087,-3.928 -19.176,-3.928c-19.365,0 -30.72,14.231 -30.72,32.598c0,20.606 13.395,32.365 30.72,32.365c8.864,0 15.067,-1.861 20.012,-3.947l3.506,18.781Z" style="fill:#333;fill-rule:nonzero;stroke:#333;stroke-width:1.11px;"/><path id="path4814" d="M520.825,585.015c-15.256,0 -24.723,-14.627 -24.723,-34.001c0,-16.731 7.201,-34.019 25.164,-34.019c17.324,0 24.327,17.927 24.327,33.588c0,20.21 -10.114,34.432 -24.561,34.432l-0.207,0Zm-0.198,18.358c25.362,0 51.344,-16.506 51.344,-53.402c0,-30.513 -19.986,-51.541 -49.896,-51.541c-30.306,0 -51.955,20.21 -51.955,53.178c0,32.176 21.855,51.765 50.309,51.765l0.198,0Z" style="fill:#333;fill-rule:nonzero;stroke:#333;stroke-width:1px;stroke-linejoin:round;stroke-miterlimit:1.41421;"/><path id="path4818" d="M520.825,585.015c-15.256,0 -24.723,-14.627 -24.723,-34.001c0,-16.731 7.201,-34.019 25.164,-34.019c17.324,0 24.327,17.927 24.327,33.588c0,20.21 -10.114,34.432 -24.561,34.432l-0.207,0Zm-0.198,18.358c25.362,0 51.344,-16.506 51.344,-53.402c0,-30.513 -19.986,-51.541 -49.896,-51.541c-30.306,0 -51.955,20.21 -51.955,53.178c0,32.176 21.855,51.765 50.309,51.765l0.198,0Z" style="fill:#333;fill-rule:nonzero;stroke:#333;stroke-width:1.11px;"/><path id="path4822" d="M682.694,571.012c0,11.957 0.413,21.846 0.818,30.1l-22.278,0l-1.223,-15.266l-0.404,0c-4.352,7.21 -14.25,17.531 -32.168,17.531c-18.367,0 -35.053,-10.923 -35.053,-43.72l0,-58.967l25.353,0l0,54.652c0,16.704 5.358,27.42 18.754,27.42c10.114,0 16.695,-7.219 19.41,-13.611c0.8,-2.265 1.42,-4.962 1.42,-7.839l0,-60.622l25.371,0l0,70.322Z" style="fill:#333;fill-rule:nonzero;stroke:#333;stroke-width:1px;stroke-linejoin:round;stroke-miterlimit:1.41421;"/><path id="path4826" d="M682.694,571.012c0,11.957 0.413,21.846 0.818,30.1l-22.278,0l-1.223,-15.266l-0.404,0c-4.352,7.21 -14.25,17.531 -32.168,17.531c-18.367,0 -35.053,-10.923 -35.053,-43.72l0,-58.967l25.353,0l0,54.652c0,16.704 5.358,27.42 18.754,27.42c10.114,0 16.695,-7.219 19.41,-13.611c0.8,-2.265 1.42,-4.962 1.42,-7.839l0,-60.622l25.371,0l0,70.322Z" style="fill:#333;fill-rule:nonzero;stroke:#333;stroke-width:1.11px;"/><path id="path4830" d="M710.103,530.599c0,-11.552 -0.189,-21.253 -0.818,-29.91l22.287,0l1.204,15.058l0.63,0c4.306,-7.83 15.256,-17.315 31.951,-17.315c17.531,0 35.655,11.346 35.655,43.099l0,59.579l-25.334,0l0,-56.702c0,-14.42 -5.376,-25.361 -19.185,-25.361c-10.096,0 -17.109,7.201 -19.779,14.843c-0.629,2.274 -1.052,5.367 -1.052,8.244l0,58.976l-25.559,0l0,-70.511Z" style="fill:#333;fill-rule:nonzero;stroke:#333;stroke-width:1px;stroke-linejoin:round;stroke-miterlimit:1.41421;"/><path id="path4834" d="M710.103,530.599c0,-11.552 -0.189,-21.253 -0.818,-29.91l22.287,0l1.204,15.058l0.63,0c4.306,-7.83 15.256,-17.315 31.951,-17.315c17.531,0 35.655,11.346 35.655,43.099l0,59.579l-25.334,0l0,-56.702c0,-14.42 -5.376,-25.361 -19.185,-25.361c-10.096,0 -17.109,7.201 -19.779,14.843c-0.629,2.274 -1.052,5.367 -1.052,8.244l0,58.976l-25.559,0l0,-70.511Z" style="fill:#333;fill-rule:nonzero;stroke:#333;stroke-width:1.11px;"/><path id="path4838" d="M901.831,598.009c-5.34,2.472 -15.859,5.367 -28.445,5.367c-31.313,0 -51.73,-20.201 -51.73,-51.343c0,-30.108 20.605,-53.6 55.838,-53.6c9.314,0 18.781,2.059 24.58,4.729l-4.549,18.978c-4.136,-1.852 -10.124,-3.928 -19.168,-3.928c-19.401,0 -30.71,14.231 -30.71,32.598c0,20.606 13.377,32.365 30.71,32.365c8.847,0 15.032,-1.861 19.968,-3.947l3.506,18.781Z" style="fill:#333;fill-rule:nonzero;stroke:#333;stroke-width:1px;stroke-linejoin:round;stroke-miterlimit:1.41421;"/><path id="path4842" d="M901.831,598.009c-5.34,2.472 -15.859,5.367 -28.445,5.367c-31.313,0 -51.73,-20.201 -51.73,-51.343c0,-30.108 20.605,-53.6 55.838,-53.6c9.314,0 18.781,2.059 24.58,4.729l-4.549,18.978c-4.136,-1.852 -10.124,-3.928 -19.168,-3.928c-19.401,0 -30.71,14.231 -30.71,32.598c0,20.606 13.377,32.365 30.71,32.365c8.847,0 15.032,-1.861 19.968,-3.947l3.506,18.781Z" style="fill:#333;fill-rule:nonzero;stroke:#333;stroke-width:1.11px;"/><rect id="path4844" x="920.606" y="500.686" width="25.586" height="100.421" style="fill:#333;fill-rule:nonzero;stroke:#333;stroke-width:1.11px;"/><rect id="path4846" x="973.37" y="454.719" width="25.577" height="146.388" style="fill:#333;fill-rule:nonzero;stroke:#333;stroke-width:1.11px;"/></g></g></g></svg>