<?xml version="1.0" encoding="UTF-8"?>
<svg fill="#BCBCBC" width="100pt" height="100pt" version="1.1" viewBox="0 0 100 100" xmlns="http://www.w3.org/2000/svg">
 <g>
  <path d="m96.523 67.172l-20.238-18.215h-52.57l-20.238 18.215-2.7852-3.0938 21.426-19.285h55.766l21.426 19.285z"/>
  <path d="m93.75 100h-87.5c-3.4453 0-6.25-2.8047-6.25-6.25v-30.207h33.332v2.082c0 5.168 4.207 9.375 9.375 9.375h14.582c5.168 0 9.375-4.207 9.375-9.375v-2.082h33.332v30.207c0.003906 3.4453-2.8008 6.25-6.2461 6.25zm-89.582-32.293v26.043c0 1.1484 0.93359 2.082 2.082 2.082h87.5c1.1484 0 2.082-0.93359 2.082-2.082v-26.043h-25.156c-1.0078 6.4844-6.625 11.461-13.383 11.461h-14.586c-6.7578 0-12.379-4.9766-13.383-11.457z"/>
  <path d="m29.883 16.59l7.293 11.457-3.5156 2.2383-7.293-11.457z"/>
  <path d="m71.16 16.59l3.5156 2.2383-7.2891 11.457-3.5156-2.2383z"/>
  <path d="m47.918 14.582h4.168v13.543h-4.168z"/>
 </g>
</svg>
